HIERARCHY
ROOT Hips
{
	OFFSET 0.00000 0.00000 0.00000
	CHANNELS 6 Xposition Yposition Zposition Zrotation Yrotation Xrotation 
	JOINT LHipJoint
	{
		OFFSET 0 0 0
		CHANNELS 3 Zrotation Yrotation Xrotation
		JOINT LeftUpLeg
		{
			OFFSET 1.75344 -1.53157 0.77399
			CHANNELS 3 Zrotation Yrotation Xrotation
			JOINT LeftLeg
			{
				OFFSET 2.25415 -6.19323 0.00000
				CHANNELS 3 Zrotation Yrotation Xrotation
				JOINT LeftFoot
				{
					OFFSET 2.30342 -6.32861 0.00000
					CHANNELS 3 Zrotation Yrotation Xrotation
					JOINT LeftToeBase
					{
						OFFSET 0.10958 -0.30108 1.49206
						CHANNELS 3 Zrotation Yrotation Xrotation
						End Site
						{
							OFFSET 0.00000 -0.00000 0.77783
						}
					}
				}
			}
		}
	}
	JOINT RHipJoint
	{
		OFFSET 0 0 0
		CHANNELS 3 Zrotation Yrotation Xrotation
		JOINT RightUpLeg
		{
			OFFSET -1.81912 -1.53156 0.77399
			CHANNELS 3 Zrotation Yrotation Xrotation
			JOINT RightLeg
			{
				OFFSET -2.22882 -6.12365 0.00000
				CHANNELS 3 Zrotation Yrotation Xrotation
				JOINT RightFoot
				{
					OFFSET -2.21943 -6.09785 0.00000
					CHANNELS 3 Zrotation Yrotation Xrotation
					JOINT RightToeBase
					{
						OFFSET -0.18931 -0.52012 1.59379
						CHANNELS 3 Zrotation Yrotation Xrotation
						End Site
						{
							OFFSET -0.00000 -0.00000 0.84686
						}
					}
				}
			}
		}
	}
	JOINT LowerBack
	{
		OFFSET 0 0 0
		CHANNELS 3 Zrotation Yrotation Xrotation
		JOINT Spine
		{
			OFFSET -0.00200 1.66634 -0.14248
			CHANNELS 3 Zrotation Yrotation Xrotation
			JOINT Spine1
			{
				OFFSET -0.00875 1.64542 0.09514
				CHANNELS 3 Zrotation Yrotation Xrotation
				JOINT Neck
				{
					OFFSET 0 0 0
					CHANNELS 3 Zrotation Yrotation Xrotation
					JOINT Neck1
					{
						OFFSET 0.02257 1.59605 0.00839
						CHANNELS 3 Zrotation Yrotation Xrotation
						JOINT Head
						{
							OFFSET -0.10214 1.57530 -0.23335
							CHANNELS 3 Zrotation Yrotation Xrotation
							End Site
							{
								OFFSET -0.03588 1.60717 -0.08062
							}
						}
					}
				}
				JOINT LeftShoulder
				{
					OFFSET 0 0 0
					CHANNELS 3 Zrotation Yrotation Xrotation
					JOINT LeftArm
					{
						OFFSET 2.54983 1.10186 0.40078
						CHANNELS 3 Zrotation Yrotation Xrotation
						JOINT LeftForeArm
						{
							OFFSET 4.28840 -0.00000 0.00000
							CHANNELS 3 Zrotation Yrotation Xrotation
							JOINT LeftHand
							{
								OFFSET 3.06552 -0.00000 -0.00000
								CHANNELS 3 Zrotation Yrotation Xrotation
								JOINT LeftFingerBase
								{
									OFFSET 0 0 0
									CHANNELS 3 Zrotation Yrotation Xrotation
									JOINT LeftHandIndex1
									{
										OFFSET 0.75304 -0.00000 0.00000
										CHANNELS 3 Zrotation Yrotation Xrotation
										End Site
										{
											OFFSET 0.60712 -0.00000 0.00000
										}
									}
								}
								JOINT LThumb
								{
									OFFSET 0 0 0
									CHANNELS 3 Zrotation Yrotation Xrotation
									End Site
									{
										OFFSET 0.61639 -0.00000 0.61639
									}
								}
							}
						}
					}
				}
				JOINT RightShoulder
				{
					OFFSET 0 0 0
					CHANNELS 3 Zrotation Yrotation Xrotation
					JOINT RightArm
					{
						OFFSET -2.60909 1.35448 0.21802
						CHANNELS 3 Zrotation Yrotation Xrotation
						JOINT RightForeArm
						{
							OFFSET -4.52172 -0.00000 -0.00000
							CHANNELS 3 Zrotation Yrotation Xrotation
							JOINT RightHand
							{
								OFFSET -2.89140 -0.00000 0.00000
								CHANNELS 3 Zrotation Yrotation Xrotation
								JOINT RightFingerBase
								{
									OFFSET 0 0 0
									CHANNELS 3 Zrotation Yrotation Xrotation
									JOINT RightHandIndex1
									{
										OFFSET -0.68054 -0.00000 0.00000
										CHANNELS 3 Zrotation Yrotation Xrotation
										End Site
										{
											OFFSET -0.54867 -0.00000 0.00000
										}
									}
								}
								JOINT RThumb
								{
									OFFSET 0 0 0
									CHANNELS 3 Zrotation Yrotation Xrotation
									End Site
									{
										OFFSET -0.55705 -0.00000 0.55705
									}
								}
							}
						}
					}
				}
			}
		}
	}
}
MOTION
Frames: 11
Frame Time: .0083333
8.5741 14.9722 -33.0154 176.8920 -43.8803 175.9670 0.0000 0.0000 0.0000 -36.8799 -8.3453 3.2797 2.6550 10.1144 29.3479 1.0727 6.1847 -22.7231 0.1513 -2.5064 -6.9075 0.0000 0.0000 0.0000 17.3568 22.9548 -12.5470 -9.8809 -17.3423 59.0894 -1.5764 6.4076 -22.5203 -2.0853 9.0415 -25.9254 3.3683 2.3108 0.9725 3.4437 3.1174 -6.6783 1.5192 1.2979 -7.5426 -0.2806 -3.7764 -0.6181 -12.0829 -4.8771 5.6785 -3.9862 -2.8599 1.6133 -0.0000 0.0000 0.0000 -26.4511 15.1863 -46.0553 17.0854 -26.9702 -4.1260 -0.0000 -0.0000 9.4436 -5.6976 -16.7707 1.6490 -7.1250 0.0000 -0.0000 -21.9020 13.8950 17.3446 -0.0000 0.0000 0.0000 34.8457 -3.3822 -27.5718 -15.8176 25.2727 -3.5677 0.0000 0.0000 29.2168 -19.7133 -60.0648 17.2501 7.1250 -0.0000 -0.0000 88.5286 78.5619 100.1679
8.5756 14.9656 -33.0655 176.8430 -45.8631 176.1050 0.0000 0.0000 0.0000 -36.6121 -8.8066 3.1152 2.8224 10.4019 30.2883 1.1588 4.4165 -22.3713 0.3099 -3.5788 -9.8946 0.0000 0.0000 0.0000 17.3877 23.0909 -12.4202 -9.1698 -16.9157 56.6754 -1.4859 8.2378 -21.8158 -1.3612 7.3849 -20.8607 3.2240 2.5334 1.0382 3.2690 3.4217 -6.6431 1.3901 1.4596 -7.5407 -0.6462 -4.2089 -0.6342 -11.9531 -5.4381 5.7739 -3.8776 -3.1446 1.6221 -0.0000 -0.0000 0.0000 -24.6139 13.2945 -47.6814 16.6667 -26.4162 -3.9379 -0.0000 -0.0000 12.4187 -6.9102 -15.5065 1.8558 -7.1250 0.0000 -0.0000 -22.8000 15.0741 17.5578 -0.0000 -0.0000 0.0000 35.2136 -2.5772 -26.9434 -16.3396 25.9790 -3.7935 0.0000 0.0000 29.1887 -17.7201 -59.2250 15.3514 7.1250 -0.0000 -0.0000 94.6754 -78.0384 -82.5907
8.5763 14.9619 -33.1273 176.8860 -47.9797 176.0220 0.0000 0.0000 0.0000 -36.2116 -9.0028 3.0895 2.9778 10.6590 31.1383 1.2102 3.1257 -22.1205 0.7863 -5.6608 -15.8032 0.0000 0.0000 0.0000 17.6443 23.4631 -11.7913 -8.4918 -16.4693 54.3152 -1.5412 8.5073 -22.2276 -2.0418 8.9526 -25.6472 3.0037 2.6490 1.0460 3.1626 3.5786 -6.5041 1.3885 1.5596 -7.4013 -0.9364 -4.4748 -0.6918 -11.7796 -5.7694 5.9095 -3.7711 -3.3146 1.6681 0.0000 -0.0000 0.0000 -22.8645 11.9891 -48.0706 16.3615 -26.0083 -3.8031 -0.0000 -0.0000 14.3590 -7.1203 -14.4653 1.7873 -7.1250 0.0000 -0.0000 -23.0655 16.0392 17.2715 0.0000 -0.0000 0.0000 34.7116 -1.1284 -26.0758 -15.6924 25.1018 -3.5144 0.0000 0.0000 29.2435 -17.5627 -59.9493 15.3208 7.1250 -0.0000 -0.0000 85.6163 77.8642 97.8955
8.5738 14.9601 -33.1851 177.2240 -50.0851 175.6480 0.0000 0.0000 0.0000 -35.6664 -9.2205 3.1495 3.1169 10.8820 31.8830 1.2386 1.7846 -21.7388 0.9710 -6.2736 -17.5802 0.0000 0.0000 0.0000 18.0829 23.8931 -11.0060 -7.8537 -16.0106 52.0340 -1.5394 9.9254 -22.2885 -1.6627 8.1250 -23.0945 3.0919 2.8147 1.1679 3.0488 3.8214 -6.3721 1.1977 1.6809 -7.3174 -1.1341 -4.6954 -0.5808 -11.5279 -6.0546 5.9651 -3.6456 -3.4473 1.6613 -0.0000 -0.0000 0.0000 -20.9943 11.1664 -46.2963 16.1297 -25.6962 -3.7020 -0.0000 -0.0000 14.8548 -6.6410 -13.6859 1.5779 -7.1250 0.0000 -0.0000 -22.8702 16.7648 16.6988 -0.0000 -0.0000 0.0000 35.1976 -0.8187 -24.3970 -16.3941 26.0521 -3.8174 0.0000 0.0000 28.8686 -18.0235 -58.9429 15.5749 7.1250 -0.0000 -0.0000 93.5561 -78.2058 -81.6048
8.5742 14.9615 -33.2283 176.6640 -52.2565 176.4100 0.0000 0.0000 0.0000 -35.7129 -9.7067 2.7681 3.2290 11.0568 32.4717 1.2006 0.6834 -20.9701 1.0255 -6.4419 -18.0721 0.0000 0.0000 0.0000 17.5884 24.2499 -10.9141 -7.2940 -15.5746 49.9777 -1.6213 9.7882 -22.8565 -2.0502 8.9699 -25.7013 2.9182 3.1320 1.0674 2.6174 4.2280 -6.4353 0.8163 1.8849 -7.3046 -2.0857 -4.9537 -0.3968 -10.3959 -6.3800 6.1962 -3.0895 -3.5963 1.7470 0.0000 -0.0000 0.0000 -18.9845 9.9943 -43.4015 16.0474 -25.5848 -3.6664 -0.0000 -0.0000 15.3869 -5.8445 -13.1516 1.3342 -7.1250 0.0000 -0.0000 -22.4381 17.2642 16.0556 0.0000 -0.0000 0.0000 35.0095 -1.3190 -20.2962 -16.6969 26.4565 -3.9514 0.0000 0.0000 26.3759 -20.5710 -56.7912 17.4325 7.1250 -0.0000 -0.0000 84.2060 -79.4497 -73.4306
8.5767 14.9645 -33.2815 176.6820 -54.3899 176.4600 0.0000 0.0000 0.0000 -35.3436 -9.7217 2.5546 3.3305 11.2118 32.9976 1.1654 -0.0422 -20.4045 1.4808 -7.6887 -21.7724 0.0000 0.0000 0.0000 17.7602 24.8988 -10.1981 -6.7738 -15.1384 48.0135 -1.7111 9.1879 -23.4511 -2.2894 9.4446 -27.1961 2.9934 3.4411 1.1564 2.3353 4.6514 -6.3839 0.4457 2.0886 -7.2691 -2.3702 -5.2205 -0.2579 -10.0374 -6.7263 6.3386 -2.9207 -3.7625 1.7727 0.0000 -0.0000 0.0000 -17.0541 8.1520 -41.2101 16.0469 -25.5843 -3.6662 -0.0000 -0.0000 17.3107 -5.3546 -13.3101 1.2361 -7.1250 0.0000 -0.0000 -22.1049 17.1179 15.8527 0.0000 -0.0000 0.0000 35.1283 -1.6159 -17.7840 -17.0480 26.9211 -4.1091 0.0000 0.0000 26.2440 -23.7349 -57.1907 20.2820 7.1250 -0.0000 -0.0000 88.7836 -80.5094 -79.1454
8.5761 14.9676 -33.3380 176.2610 -56.5675 176.8150 0.0000 0.0000 0.0000 -35.2163 -9.5003 2.4127 3.4223 11.3492 33.4669 1.1663 -0.9431 -20.1283 1.9439 -8.7483 -25.0112 0.0000 0.0000 0.0000 17.6143 25.8685 -9.2643 -6.3063 -14.7187 46.1988 -1.7004 9.9148 -23.4117 -1.7917 8.4180 -23.9910 2.8009 3.7240 1.1355 1.9916 5.0201 -6.2159 0.1730 2.2866 -7.0562 -3.4165 -5.3610 -0.6797 -8.7476 -6.8399 6.9998 -2.3586 -3.8372 2.1365 0.0000 0.0000 0.0000 -15.1070 7.5553 -36.7015 16.2800 -25.8988 -3.7674 -0.0000 -0.0000 16.7828 -5.0128 -13.4040 1.1649 -7.1250 0.0000 -0.0000 -21.8746 17.0302 15.7049 0.0000 0.0000 0.0000 34.9424 -1.9567 -14.4363 -17.2402 27.1734 -4.1965 0.0000 0.0000 26.1961 -26.9854 -56.8263 23.0843 7.1250 -0.0000 -0.0000 90.2397 -81.7094 -81.8635
8.5752 14.9801 -33.3942 175.8260 -58.9022 177.2730 0.0000 0.0000 0.0000 -35.0436 -9.5451 2.3643 3.5163 11.4873 33.9414 1.1536 -2.9286 -19.5397 0.8255 -5.7967 -16.1958 0.0000 0.0000 0.0000 17.5562 26.1033 -8.6764 -5.8771 -14.3081 44.4863 -1.8292 8.5080 -24.2459 -2.2892 9.4442 -27.1950 2.6942 4.0158 1.0394 1.5823 5.3959 -6.0745 -0.2071 2.4804 -6.8124 -2.5978 -5.4619 -0.9216 -9.0831 -6.9334 7.2752 -2.6301 -3.8812 2.2294 -0.0000 0.0000 0.0000 -14.5034 4.6963 -41.8329 16.6240 -26.3595 -3.9189 -0.0000 -0.0000 26.0956 -6.3024 -15.3738 1.6772 -7.1250 0.0000 -0.0000 -22.4399 15.1981 17.1633 -0.0000 0.0000 0.0000 34.8533 -2.4983 -11.3578 -17.2697 27.2119 -4.2099 0.0000 0.0000 27.4944 -30.0819 -56.2262 25.7109 7.1250 -0.0000 -0.0000 90.9997 -82.9269 -83.8809
8.5796 14.9885 -33.4575 175.8070 -61.5074 177.3350 0.0000 0.0000 0.0000 -34.6288 -9.7444 2.4040 3.6120 11.6254 34.4193 1.1058 -4.6143 -18.8764 0.2151 -2.9859 -8.2394 0.0000 0.0000 0.0000 17.7717 26.4226 -7.8649 -5.4823 -13.9072 42.8668 -1.8821 8.4845 -24.6015 -2.0220 8.9119 -25.5200 2.6656 4.2032 1.0898 1.3064 5.6462 -6.0060 -0.4947 2.6058 -6.7376 -2.5572 -5.5506 -1.3092 -8.8372 -6.9883 7.8994 -2.5989 -3.9266 2.5129 -0.0000 0.0000 0.0000 -13.3201 1.6835 -44.0169 16.8466 -26.6551 -4.0183 -0.0000 -0.0000 31.9772 -7.6327 -15.8460 2.0956 -7.1250 0.0000 -0.0000 -23.2015 14.7563 18.1027 -0.0000 0.0000 0.0000 34.6092 -3.0612 -8.4979 -17.2222 27.1498 -4.1882 0.0000 0.0000 30.6335 -31.3316 -56.8858 27.0166 7.1250 -0.0000 -0.0000 91.8241 83.1440 98.7392
8.5873 14.9997 -33.5186 175.6990 -64.3119 177.5330 0.0000 0.0000 0.0000 -34.2999 -9.8861 2.2803 3.7033 11.7547 34.8697 1.0534 -5.2649 -18.3575 0.2199 -3.0187 -8.3307 0.0000 0.0000 0.0000 17.8300 26.7018 -7.0788 -5.1223 -13.5202 41.3483 -1.8610 9.2986 -24.4693 -1.5915 7.9576 -22.5854 2.7554 4.3739 1.3799 0.8881 5.8809 -6.1334 -1.0209 2.7014 -6.9823 -3.3635 -5.5826 -1.8024 -7.5836 -6.9591 9.0734 -2.1189 -3.9402 3.0743 -0.0000 0.0000 0.0000 -11.8010 -0.1332 -40.6698 17.5826 -27.6194 -4.3540 -0.0000 -0.0000 31.3969 -9.8240 -14.6788 2.5125 -7.1250 0.0000 -0.0000 -24.6995 15.8069 18.9061 -0.0000 0.0000 0.0000 34.5029 -3.9098 -5.5929 -17.0470 26.9197 -4.1086 0.0000 0.0000 34.7355 -31.1755 -58.0669 27.1794 7.1250 -0.0000 -0.0000 99.2736 82.6360 106.6758
8.5930 15.0169 -33.5738 175.7080 -67.2193 177.7650 0.0000 0.0000 0.0000 -34.0342 -10.3493 2.0897 3.8150 11.9100 35.4143 1.0076 -5.2250 -17.9452 0.3369 -3.7300 -10.3182 0.0000 0.0000 0.0000 17.8232 26.7387 -6.5442 -4.7921 -13.1457 39.9165 -1.8195 10.1236 -24.2271 -1.3199 7.2762 -20.5364 3.0255 4.4924 1.5194 0.4634 6.0441 -6.2503 -1.6362 2.7515 -7.1092 -3.7025 -5.5590 -2.0510 -6.7588 -6.9044 9.8376 -1.8312 -3.9186 3.4283 0.0000 -0.0000 0.0000 -10.2864 -1.9516 -37.4846 18.1962 -28.4077 -4.6422 -0.0000 -0.0000 31.0809 -11.2472 -14.1205 2.7775 -7.1250 0.0000 -0.0000 -25.6464 16.2850 19.5087 0.0000 -0.0000 0.0000 34.2695 -4.7697 -1.9244 -16.7151 26.4807 -3.9595 0.0000 0.0000 38.1749 -31.0175 -58.7793 27.2121 7.1250 -0.0000 -0.0000 103.0428 82.2620 110.7618
